<?xml version="1.0" standalone="no"?><!DOCTYPE svg PUBLIC "-//W3C//DTD SVG 1.1//EN" "http://www.w3.org/Graphics/SVG/1.1/DTD/svg11.dtd"><svg t="1512228777712" class="icon" style="" viewBox="0 0 1024 1024" version="1.1" xmlns="http://www.w3.org/2000/svg" p-id="1589" xmlns:xlink="http://www.w3.org/1999/xlink" width="180" height="180"><defs><style type="text/css"></style></defs><path d="M268.757475 265.355482h108.863787v153.089701H268.757475zM268.757475 462.671096h108.863787v156.491695H268.757475zM561.328904 244.943522H748.438538v125.873754h-187.109634z" p-id="1590"></path><path d="M0 0v1024h1024V0H0z m268.757475 714.418605H221.129568V214.325581h207.521595v452.465117H268.757475V714.418605z m530.710964 17.009966c0 51.0299-23.813953 78.245847-74.843854 78.245848-30.61794 0-68.039867 0-112.265781-3.401994-3.401993-17.009967-6.803987-37.421927-10.20598-54.431893 44.225914 3.401993 78.245847 3.401993 105.461794 3.401993S748.438538 741.634551 748.438538 714.418605v-129.275748h-197.315614c-13.607973 81.647841-54.431894 159.893688-129.275748 227.933555-10.20598-13.607973-27.215947-27.215947-44.225914-40.82392 54.431894-47.627907 88.451827-95.255814 105.461794-142.883721 17.009967-44.225914 23.813953-112.265781 23.813954-207.521595V193.913621h292.571429v537.51495z" p-id="1591"></path><path d="M748.438538 415.043189h-187.109634c0 44.225914 0 88.451827-3.401994 125.873755H748.438538v-125.873755z" p-id="1592"></path></svg>